<?xml version="1.0" encoding="UTF-8" standalone="no"?>
<svg
   xmlns:dc="http://purl.org/dc/elements/1.1/"
   xmlns:cc="http://creativecommons.org/ns#"
   xmlns:rdf="http://www.w3.org/1999/02/22-rdf-syntax-ns#"
   xmlns:svg="http://www.w3.org/2000/svg"
   xmlns="http://www.w3.org/2000/svg"
   xmlns:sodipodi="http://sodipodi.sourceforge.net/DTD/sodipodi-0.dtd"
   xmlns:inkscape="http://www.inkscape.org/namespaces/inkscape"
   version="1.1"
   id="crocodile"
   x="0px"
   y="0px"
   width="40"
   height="40"
   viewBox="0 0 40 40"
   enable-background="new 0 0 260 250"
   xml:space="preserve"
   inkscape:version="0.48.4 r9939"
   sodipodi:docname="bomb.svg"><metadata
     id="metadata10"><rdf:RDF><cc:Work
         rdf:about=""><dc:format>image/svg+xml</dc:format><dc:type
           rdf:resource="http://purl.org/dc/dcmitype/StillImage" /><dc:title /></cc:Work></rdf:RDF></metadata><defs
     id="defs8"><inkscape:path-effect
       effect="spiro"
       id="path-effect3024"
       is_visible="true" /></defs><sodipodi:namedview
     pagecolor="#ffffff"
     bordercolor="#666666"
     borderopacity="1"
     objecttolerance="10"
     gridtolerance="10"
     guidetolerance="10"
     inkscape:pageopacity="0"
     inkscape:pageshadow="2"
     inkscape:window-width="1680"
     inkscape:window-height="971"
     id="namedview6"
     showgrid="false"
     inkscape:zoom="4.4500587"
     inkscape:cx="38.25286"
     inkscape:cy="37.860365"
     inkscape:window-x="-2"
     inkscape:window-y="32"
     inkscape:window-maximized="1"
     inkscape:current-layer="layer1" /><g
     inkscape:label="Layer 1"
     inkscape:groupmode="layer"
     id="layer1"
     transform="translate(0,-216.66667)"><path
       sodipodi:type="arc"
       style="fill:#000000;fill-opacity:1;stroke:none"
       id="path3806"
       sodipodi:cx="91.908897"
       sodipodi:cy="104.72167"
       sodipodi:rx="29.887247"
       sodipodi:ry="29.887247"
       d="m 121.79614,104.72167 a 29.887247,29.887247 0 1 1 -59.77449,0 29.887247,29.887247 0 1 1 59.77449,0 z"
       transform="matrix(0.30893286,0,0,0.30893286,-7.9942311,204.61614)" /><g
       id="g3832"
       transform="matrix(0.34370366,0,0,0.34370366,-5.9250734,206.97375)"><rect
         y="52.249798"
         x="73.746597"
         height="70.03653"
         width="5.6882968"
         id="rect3808"
         style="fill:#000000;fill-opacity:1;stroke:none" /><rect
         transform="matrix(0,-1,1,0,0,0)"
         style="fill:#000000;fill-opacity:1;stroke:none"
         id="rect3810"
         width="5.6882968"
         height="70.03653"
         x="-90.112206"
         y="41.572483" /></g><path
       sodipodi:type="arc"
       style="fill:#000000;stroke:#000000;stroke-width:3;stroke-miterlimit:4;stroke-dasharray:none;stroke-dashoffset:0"
       id="path3822"
       sodipodi:cx="64.381172"
       sodipodi:cy="80.227615"
       sodipodi:rx="4.3819647"
       sodipodi:ry="4.3819647"
       d="m 68.763137,80.227615 a 4.3819647,4.3819647 0 1 1 -8.76393,0 4.3819647,4.3819647 0 1 1 8.76393,0 z"
       transform="matrix(0.14369711,0,0,0.14369711,3.9534173,218.20432)" /><path
       transform="matrix(0.14369711,0,0,0.14369711,18.320107,218.20432)"
       d="m 68.763137,80.227615 a 4.3819647,4.3819647 0 1 1 -8.76393,0 4.3819647,4.3819647 0 1 1 8.76393,0 z"
       sodipodi:ry="4.3819647"
       sodipodi:rx="4.3819647"
       sodipodi:cy="80.227615"
       sodipodi:cx="64.381172"
       id="path3824"
       style="fill:#000000;stroke:#000000;stroke-width:3;stroke-miterlimit:4;stroke-dasharray:none;stroke-dashoffset:0"
       sodipodi:type="arc" /><path
       sodipodi:type="arc"
       style="fill:#000000;stroke:#000000;stroke-width:3;stroke-miterlimit:4;stroke-dasharray:none;stroke-dashoffset:0"
       id="path3826"
       sodipodi:cx="64.381172"
       sodipodi:cy="80.227615"
       sodipodi:rx="4.3819647"
       sodipodi:ry="4.3819647"
       d="m 68.763137,80.227615 a 4.3819647,4.3819647 0 1 1 -8.76393,0 4.3819647,4.3819647 0 1 1 8.76393,0 z"
       transform="matrix(0.14369711,0,0,0.14369711,18.271019,232.81645)" /><path
       transform="matrix(0.14369711,0,0,0.14369711,4.149773,232.91463)"
       d="m 68.763137,80.227615 a 4.3819647,4.3819647 0 1 1 -8.76393,0 4.3819647,4.3819647 0 1 1 8.76393,0 z"
       sodipodi:ry="4.3819647"
       sodipodi:rx="4.3819647"
       sodipodi:cy="80.227615"
       sodipodi:cx="64.381172"
       id="path3828"
       style="fill:#000000;stroke:#000000;stroke-width:3;stroke-miterlimit:4;stroke-dasharray:none;stroke-dashoffset:0"
       sodipodi:type="arc" /><rect
       style="fill:#ffffff;fill-opacity:1;stroke:#000000;stroke-width:1.09004879;stroke-miterlimit:4;stroke-dasharray:none;stroke-dashoffset:0"
       id="rect3838"
       width="5.0623322"
       height="5.3072834"
       x="14.561269"
       y="231.09323"
       ry="1.5513598" /></g></svg>